<?xml version="1.0" encoding="utf-8"?>
<!-- Generator: Adobe Illustrator 25.0.0, SVG Export Plug-In . SVG Version: 6.00 Build 0)  -->
<svg version="1.1" id="Capa_1" xmlns="http://www.w3.org/2000/svg" xmlns:xlink="http://www.w3.org/1999/xlink" x="0px" y="0px"
	 viewBox="0 0 512 512" style="enable-background:new 0 0 512 512;" xml:space="preserve">
<style type="text/css">
	.st0{fill:#FFFFFF;}
</style>
<g>
	<g>
		<path class="st0" d="M512,35.3c0-19.3-15.7-35.1-35.1-35.1H350c-5.5,0-10,4.5-10,10s4.5,10,10,10h126.9c8.3,0,15.1,6.8,15.1,15.1
			v192.3c-6.3-2.2-13.5-2.2-19.9,0c0-3.8,0.1-7.6-0.6-11.4c-1.5-7.1-5.4-13.3-10.9-17.8c-2.5-39.2-19.3-75.6-47.6-103.1
			c-29.6-28.8-68.7-44.6-110-44.6c-72.8,0-134.3,49.5-152.5,116.6h-11.9L104,96.7c5.8-5.5,9.4-13.3,9.4-21.9
			c0-16.6-13.5-30.2-30.2-30.2c-16.6,0-30.2,13.5-30.2,30.2c0,16.6,13.5,30.2,30.2,30.2c0.8,0,1.7,0,2.5-0.1l37.6,76.8
			c1.7,3.4,5.2,5.6,9,5.6h14c-1,7-1.5,14.1-1.5,21.4c0,77.9,57.1,144.2,133.6,156.1l22.8,30l0.3,0.5H186.8v-40.1
			c0-15.3-11.7-28.8-26.9-30.8c-2.9-0.4-5.9-0.4-8.9,0.1c-3-16.4-17.4-28.8-34.6-28.8c-3.7,0-7.3,0.6-10.7,1.7
			c-2.3-14.4-16.7-28.2-32.1-26.2c-14.1,1.1-26.4,10.7-29.3,24.9l-19.6,95.2c-2.9-2.8-4.8-6.7-4.8-11V35.3c0-8.3,6.8-15.1,15.1-15.1
			h226.5c5.5,0,10-4.5,10-10s-4.5-10-10-10H35.1C15.7,0.2,0,15.9,0,35.3v344.9c0,15.4,9.7,28.4,23.6,33.2c0.1,0.4,0.1,0.7,0.2,1.1
			L43,503.9c1,4.6,5.1,7.9,9.8,7.9h88.9c5.5,0,10-4.5,10-10v-18.9l21.5-34.1c0.1-0.1,0.1-0.2,0.2-0.3c6-10.3,10.1-21.5,12.1-33.2
			h132.5c2.4,2.4,5,4.6,7.7,6.6c14.6,10.9,23.3,28.3,23.3,46.6v33.3c0,5.5,4.5,10,10,10h116.2c5.5,0,10-4.5,10-10v-24.1
			c0-6.8,1.2-13.6,3.5-20l18.7-52.1c3.1-8.6,4.7-17.6,4.7-26.8L512,35.3z M73.1,74.8c0-5.6,4.6-10.2,10.2-10.2s10.2,4.6,10.2,10.2
			S88.9,85,83.3,85S73.1,80.5,73.1,74.8z M115.8,387.5c-1.7,3.8-5.3,6.7-9.4,7.3c-8.2,1.3-17.1-7-15.4-15.4l4.2-20.5
			c5.9,4.5,13.3,7.2,21.3,7.2c1.6,0,3.2-0.1,4.8-0.3C121.2,365.7,116.9,384.9,115.8,387.5L115.8,387.5z M131.7,330.8
			c0,8.4-6.8,15.2-15.2,15.2s-15.2-6.8-15.2-15.2c0-8.4,6.8-15.2,15.2-15.2S131.7,322.4,131.7,330.8z M133.2,474.7
			c-1,1.6-1.5,3.4-1.5,5.3v11.8H60.9l-17.5-81.5c-0.7-3.3-0.7-6.8,0-10.1l20.5-99.8c1.4-4.9,6-9.9,11.6-9.3
			c6.7,0.8,11.8,6.8,10.4,13.5l-7,34.4l-7.5,36.4c-4.2,19.9,11.8,39.9,32.4,39.9c15.2,0,28.7-10.7,32.2-25.4l8.8-36.7
			c1.2-5.2,5.8-9,10.8-9c6.1-0.1,11.3,5,11.3,11.1v43.5c0,13.8-3.7,27.6-10.7,39.6L133.2,474.7z M303,239.2
			c-16.8,0-30.5-13.7-30.5-30.5c0-16.8,13.7-30.5,30.5-30.5c16.8,0,30.5,13.7,30.5,30.5C333.5,225.5,319.8,239.2,303,239.2z
			 M165,208.7c0-7.3,0.6-14.4,1.7-21.4h37.1c5.5,0,10-4.5,10-10s-4.5-10-10-10h-32.4c17.6-55.9,70-96.6,131.7-96.6
			c36.1,0,70.2,13.8,96.1,39c22.8,22.1,37,50.9,40.9,82c-4.2,0.2-8.4,1.3-12.2,3.2c-4.5-9.4-13.7-16-24.6-16.8
			c-13.8-1-27.3,7.5-31.5,20.8c-3.4-1.4-7.2-2.1-11.1-2.1c0,0,0,0,0,0h0c-2.9,0-5.6,0.4-8.3,1.2c-5-22.7-25.2-39.7-49.3-39.7
			c-27.9,0-50.5,22.7-50.5,50.5s22.7,50.5,50.5,50.5c10.3,0,19.9-3.1,27.9-8.4v68.7l-20.2-16.4c-11.2-9.1-26.7-9-38.5-1.3
			c-12.3,8-16.6,25.2-11,38.5C204.9,322.4,165,269.6,165,208.7L165,208.7z M488.5,398.9l-18.7,52.1c-3.1,8.6-4.7,17.6-4.7,26.8v14.1
			H369v-23.3c0-24.5-11.7-47.9-31.3-62.6c-4.3-3.2-8.2-7.1-11.4-11.4L281,335.1c-3.9-5.1-2.9-12.5,2-16.5c4.4-3.6,10.9-2.8,15.2,0.3
			l36.3,29.5c6.4,5.2,16.3,0.5,16.3-7.8V226.5c0-5.4,4.4-9.7,9.7-9.7c5.3,0,9.7,4.5,9.7,9.8v82c0,5.5,4.5,10,10,10s10-4.5,10-10
			V207.7c0-5.7,5-9.7,10.5-9.7c5.3,0,9.8,4.4,9.8,9.7l0,100.8c0,5.5,4.5,10,10,10s10-4.5,10-10v-86.2c0-5.9,4.9-10.7,10.8-10.7
			c5.8,0,10.8,5,10.8,10.7v86.2c0,5.5,4.5,10,10,10c5.5,0,10-4.5,10-10v-52.8c0-5.6,4.7-9.8,10.1-9.8c5.4,0,9.7,4.4,9.7,9.7
			c0,0,0,0,0,0v123.1C492,385.7,490.8,392.4,488.5,398.9L488.5,398.9z"/>
		<path class="st0" d="M350.4,136.8c4.6,3,10.9,1.7,13.9-2.8c3-4.6,1.8-10.8-2.8-13.9c-34.7-22.9-79.6-23.1-114.5-0.6
			c-4.6,3-6,9.2-3,13.8c3,4.6,9.2,6,13.8,3C286,118.1,322.4,118.3,350.4,136.8z"/>
		<path class="st0" d="M312.2,204.9c-2.1-5-8-7.5-13.1-5.4c-5,2.1-7.5,8-5.4,13.1s8,7.5,13.1,5.4
			C311.8,215.9,314.3,209.9,312.2,204.9z"/>
		<path class="st0" d="M296.9,14c2.1,5,8,7.5,13.1,5.4c5-2.1,7.5-8,5.4-13.1c-2.1-5-8-7.5-13.1-5.4C297.3,3.1,294.9,9,296.9,14z"/>
	</g>
</g>
</svg>
