<?xml version="1.0" encoding="utf-8"?>
<!DOCTYPE svg PUBLIC "-//W3C//DTD SVG 1.1//EN" "http://www.w3.org/Graphics/SVG/1.1/DTD/svg11.dtd">
<svg version="1.1" id="Layer_1" xmlns="http://www.w3.org/2000/svg" xmlns:xlink="http://www.w3.org/1999/xlink" x="0px" y="0px"
	 viewBox="0 0 1212 1192" enable-background="new 0 0 1212 1192" xml:space="preserve">
<path d="M324.28,35.31c6.02-0.24,12.12-0.34,18.01,1.11c-0.07,2.36-0.13,4.72-0.2,7.09c3.44,0.42,6.85,1.04,10.17,2.04
	c-0.3,5.4-0.51,10.8-0.56,16.21c6.46,0.92,12.73,3.35,19.33,3.13c33.65-0.28,67.3-0.07,100.91,1.61c8.77,0.54,17.56,1.09,26.27,2.38
	c3.34,0.62,6.98,0.98,9.71,3.23c0.26,3.59-3.79,4.25-6.42,5.03c-15.12,3.39-30.63,4.45-46.02,5.98
	c-39.65,3.11-79.39,4.98-119.14,5.81c-0.08,7.29-0.43,14.57-0.62,21.86c3.62,0.99,9.6-0.75,10.88,4.03
	c1.46,4.58,1.24,9.55,0.42,14.23c-0.64,3-1.47,6.31-4.01,8.29c-4.67,0.15-9.3-0.81-13.95-1.12c-27.9,20.73-55.88,41.35-83.81,62.04
	c0.82,2.96,1.42,5.96,1.93,8.98c1.51,0.8,3.84,0.85,4.42,2.78c1.69,4.99,1.2,10.79-1.29,15.44c-0.89,1.89-3.25,1.49-4.93,1.95
	c-1.68,4.45-3.11,9.91-7.71,12.21c-4.33,0.74-8.72-0.38-13.04-0.8c-0.33,28.93-0.34,57.86-0.74,86.78c8.04,0.4,16.06,1.09,24.1,1.39
	c9.8,1.48,19.69,2.25,29.47,3.77c3.66-6.84,6.66-14.02,10.87-20.56c2.07-0.17,4.14-0.33,6.21-0.5c5.28-8.55,9.08-17.88,13.3-26.97
	c2.64-5.65,4.44-11.62,6.12-17.61c-1.15-1.67-2.3-3.34-3.44-5.01c3.5-9.57,8.73-18.29,13.86-27.05c0.65,0.1,1.93,0.3,2.58,0.39
	c2.43-7.57,5.44-15.04,9.65-21.81c1.56-2.13,3.75-0.02,5.24,0.98c3.61-6.69,7.29-13.57,12.92-18.81
	c20.21-22.77,50.33-34.74,80.23-37.15c6.02-0.25,11.96-1.93,18.01-0.97c7.26,1.15,14.65,0.76,21.91,1.95
	c12.38,3.1,24.98,5.72,36.82,10.67c24.51,9.56,47,24.59,64.63,44.17c3.43,3.01,6.6,6.32,8.91,10.29
	c4.24,7.42,10.3,13.83,12.96,22.09c9.36,19.73,13.57,42.37,9.22,63.96c-1.11,6.43-3.09,12.65-4.77,18.93
	c-2.44,8.88-4.72,17.87-8.54,26.28c3.4,4.59,5.2,11.47,11.34,13.1c5.48,1.08,11.11,1.13,16.66,1.72c0.04,1.2,0.08,2.39,0.13,3.6
	c4.86,0.39,9.71,0.87,14.58,1.23c3.45-9.57,12.1-17.02,22.16-18.73c12.17-2.46,25.44,3.63,31.5,14.48
	c2.93,5.24,4.31,11.42,3.46,17.39c-1.21,7.23-2.43,14.95-7.36,20.72c-3.4,4.35-8.16,7.34-13.19,9.45
	c-1.57,19.49-3.16,38.97-4.83,58.45c2.35,0.57,4.83,0.86,7.03,1.97c8.53,4.21,16.89,8.78,25.16,13.48c0.79-2.73,2.7-4.72,5.28-5.84
	c2.11-24.43,4.32-48.85,6.5-73.27c-4.65-1.6-9.62-3.6-12.25-8.04c-5.73-8.85-4.66-20.23-1.31-29.75
	c-4.11-4.95-7.18-10.68-8.91-16.89c-2.28-5.4-1.59-11.35-1.95-17.05c-0.23-3.4,0.2-6.79,1.02-10.09
	c5.11-31.3,21.47-59.46,40.51-84.31c2.16-4.34,5.24-8.1,8.72-11.45c6.64-4.37,9.36-12.56,16.06-16.86c4.3-2.53,7.47-6.47,11.33-9.57
	c18.44-15.8,38.96-29.68,61.9-38.03c4.91-1.9,10.09-2.95,15.02-4.81c4.89-1.53,10.1-0.88,15.12-1.62c4.8-0.7,9.47,0.86,14.1,1.89
	c6.04,1.45,11.66,4.44,16.36,8.5c8.2,7.14,16.55,14.11,24.7401,21.26c4.15,3.55,7.74,7.86,9.8799,12.93
	c0.96,2.29,2.02,4.64,4.07,6.18c18,15.29,35.82,30.8,53.82,46.09c8.5,5.22,16.52,11.19,24.75,16.83c-0.51,1.06-1,2.12-1.48,3.19
	c6.03,5.22,12.11,10.36,18.1,15.62c2.8901,2.84,7.22,2.67,10.79,4.15c6.52,2.27,11.3,7.42,16.5,11.72
	c7.4701,6.46,15.0701,12.77,22.4601,19.31c8.96,8.1,9.4199,21.24,8.6599,32.42c-2.0699,6.55-2,13.71-5.4099,19.82
	c-10.15,27.5-26.87,52.02-45.4401,74.48c-2.96,4.41-5.99,8.91-10.33,12.1c-5.26,3.98-8.09,10.26-13.32,14.28
	c-5.86,4.06-10.6,9.44-16.08,13.96c-20.65,17.89-43.33,33.86-68.62,44.49c-5.38,3.06-11.57,3.8-17.38,5.64
	c-4.18,1.34-8.61,1.33-12.94,1.57c-6.02,0.25-12.2-0.5-17.66-3.16c-3.91-1.83-6.97-4.96-10.01-7.93
	c-5.24-5.34-10.55-10.61-15.82-15.91c-2.67,22.75-5.12,45.52-7.81,68.27c1.75,1.39,3.52,2.75,5.3,4.14
	c-1.33,2.35-2.69,4.68-4.05,7.02c6.89,8.01,16.04,13.82,22.58,22.17c0.96,2.3799-0.25,4.84-1.14,7.04
	c10,8.73,19.61,17.88,29.51,26.72c6.53,6.13,13.63,11.67,19.6,18.38c7.16,7.88,14.76,15.45,20.43,24.53
	c3.79,5.55,8.11,10.79,11.06,16.87c3.98,8.08,9.01,15.67,11.95,24.24c2.92,8.15,6.7,16.02,8.52,24.53c1.9,8.39,4.69,16.6,5.54,25.2
	c0.87,8.38,2.67,16.6801,2.64,25.13c0.17,5.21-0.32,10.49,0.73,15.64c0.74,3.38,0.19,6.85-0.1,10.25
	c-0.63,8.98-2.37,17.81-3.65,26.71c16.48-6.27,32.97-12.52,49.5-18.65c1.41-8.25,2.36-16.57,3.85-24.8
	c0.33-3.18,3.74-4.12,6.1599-5.32c10.13-66.54,20.2301-133.09,30.2401-199.65c-2.9701-2.31-2.8101-5.85-1.9801-9.19
	c-6.6,2.63-13.35,5.89-20.58,5.85c-2.85,0.17-3.9399-3.13-2.1-5.07c5.9199-8.28,15.6799-12.58,24.88-16.17
	c1.7999-7.65,2.2-15.57,3.83-23.26c0.4501-2.67,3.8101-2.73,5.79-3.67c6.79-44.17,13.45-88.36,20.16-132.54
	c-1.5701-1.28-3.8101-2.51-2.92-4.91c2.24-14.74,4.4299-29.5,6.72-44.23c0.52-4.26,6.22-2.9,9.27-3.53
	c6.9301-45.33,13.8101-90.67,20.78-135.99c-4.2101,0.01-9.05,0.77-12.5-2.22c-4.65-3.73-5.88-9.87-7.22-15.34
	c-1.3301-5.34,1.5199-10.38,3-15.35c-38.75-22.26-77.5801-44.37-116.3201-66.65c-5.14-2.58-11.16-0.28-16.59-1.53
	c-3.76-1.86-4.59-6.59-4.73-10.37c0.16-4.5,1.23-9.93,5.5-12.32c2.7-0.74,5.57-0.36,8.35-0.44c1.07-8.19,2.1-16.39,3.14-24.59
	c-42.18-6.09-84.37-12.25-126.28-20.06c-9.04-1.99-18.45-2.98-27.01-6.62c0.09-0.55,0.26-1.65,0.35-2.21
	c4.95-1.01,10.04-0.22,15.04-0.01c29.44,2.3,58.75,5.98,88.05,9.64c5.3,0.55,10.64,2.02,15.97,0.87
	c7.6299-1.43,15.33-2.4,23.08-2.84c0.76-4.96,0.7-10.12,2.17-14.93c2.96-0.52,5.98-0.35,8.98-0.35c0.35-2.28,0.67-4.56,1.07-6.84
	c5.47-0.1,10.97,0.26,16.35,1.36c-0.25,2.23-0.49,4.45-0.7,6.68c2.95,0.5,5.91,1.03,8.86,1.63c-0.4,5.7-1.28,11.35-2.03,17.01
	c8.2,2.32,15.96,5.85,23.56,9.65c4.26,2.33,9.1901,2.46,13.88,3.23c28.78,4.4,57.5601,8.86,86.15,14.36
	c7.1699,1.55,14.52,2.61,21.3199,5.48c-0.4,0.64-1.2,1.94-1.6,2.58c-14.0599,0.28-28.03-1.59-42-2.86
	c-39.15-4.13-78.1899-9.24-117.18-14.67c-0.91,7.83-2.04,15.63-2.94,23.46c2.32,0.33,5.24-0.21,6.92,1.85
	c3.77,4.66,3.06,11.18,1.52,16.56c38.11,21.42,76.1,43.05,114.28,64.34c6.99-1.66,14.22-0.93,21.3301-1.13
	c5.61,0.09,11.25-0.38,16.85,0.11c6.85,1.13,10.14,8.39,11.23,14.53c1.54,6.21,0.03,12.66-2.5,18.38c-1.83,3.77-4.8,7.4-8.97,8.59
	c-4.16,0.85-8.4301,0.64-12.64,0.82c-7.05,46.01-14.25,92-21.39,137.99c2.83,0.93,5.62,2.04,8.22,3.54
	c-1.14,7.59-2.3199,15.18-3.59,22.75c3.96,1.39,8.11,1.1,12.2,0.59c3.24-4.32,5.9-9.38,10.48-12.48c3.5701,0.3,7.01,1.42,10.5,2.24
	c-1.2999,7.28-5.1299,13.72-8.72,20.06c-3.88,6.36-7.75,12.95-13.51,17.84c-3.4199-0.86-6.9199-1.49-10.1899-2.82
	c0.3199-5.35,3.3099-10.02,5.5499-14.74c-2.1699-1.73-4.8099-2.5-7.46-3.05c-0.95,5.55-1.61,11.15-2.62,16.69
	c0,2.25-2.5599,2.57-4.12,3.42c-7.13,44.25-13.83,88.57-20.84,132.84c1.76,1.3,3.4299,2.73,4.9099,4.36
	c-2.71,14.65-4.61,29.43-7.11,44.11c-0.22,2.08-2.4399,2.8199-3.88,3.93c-10.49,66.71-20.96,133.43-31.2899,200.17
	c1.95,1.95,4.9,4.02,4.26,7.2c-1.17,8.31-2.62,16.58-3.88,24.88c25.51,20.7,51.01,41.39,76.45,62.18c0.99,0.59,1.83,1.85,3.12,1.79
	c4.41-0.33,8.72-1.41,13.08-2.09c2.8601,2.2,5.7401,4.39,8.63,6.58c-0.6699,6.31-2.5599,12.47-2.95,18.81
	c1.1,5.55,3.05,10.9,4.36,16.41c-7.74,1.16-15.39,3.26-23.1899,3.78c-4.9-3.33-9.26-7.39-13.9-11.05
	c3.1799-4.61,6.37-9.21,9.6-13.78c-23.99-20.29-48.0699-40.47-72.1799-60.61c15.8899,38.56,31.8099,77.11,47.72,115.67
	c3.1599,7.31,5.83,14.85,9.2899,22.03c3.53,3.87,7.9801,6.77,11.7301,10.45c-0.9501,6.7101-2.9,13.3101-3.1801,20.1001
	c1.04,6.27,3.16,12.3199,4.58,18.52c-6.88,1.25-13.72,3.45-20.6899,3.7599c-6.39-5.25-12.38-10.98-18.55-16.49
	c3.29-4.9399,7.67-9.21,10.3-14.5499c-19.1901-50.94-39.1801-101.61-58.71-152.4301c-7.4601-0.02-14.9401-1.6-21.46-5.3
	c-25.69,23.36-51.34,46.77-77.04,70.1c-2.8,2.74-4.07,6.5699-5.93,9.94c-4.1,8.56-9.69,16.2599-14.63,24.33
	c-4.94,8.33-11.28,15.68-17,23.47c7.51,5.34,14.79,11.03,22.45,16.16c3.34,0.7799,6.86-0.3401,10.27-0.4401
	c1.23,1.54,2.47,3.08,3.71,4.64c-0.53,3.6801-1.39,7.35-1.34,11.1c0.45,3.55,1.84,6.89,2.78,10.34
	c-5.29,0.5701-10.58,1.2001-15.87,1.7301c-2.04-2.5701-4.08-5.14-6.06-7.75c1.57-2.24,3.15-4.4601,4.72-6.6801
	c-7.85-6.23-16.01-12.0699-23.91-18.23c-1.17-0.78-2.23-1.9-3.62-2.16c-6.45,6.52-12.2,13.7101-18.65,20.25
	c-5.53,5.17-11.11,10.3-16.58,15.54c-8.05,7.7-17.75,13.48-25.49,21.51c-4.2401,3.15-8.8,5.83-13.12,8.88
	c-8.4901,5.1-17.32,9.7-25.35,15.53c-4.48,2.6-9.1,4.98-13.58,7.6c-3.35,2.1699-7.59,1.83-11.02,3.85
	c-10.89,5.4399-22.35,9.5-33.85,13.42c-8.52,3.35-17.5,5.2-26.32,7.5599c-12.29,3.51-25.02,4.9-37.58,7.05
	c-12.83,0.8999-25.66,2.51-38.54,1.9099c-6.72-0.26-13.47-0.21-20.17-0.7999c-12.14-1.61-24.44-2.4301-36.28-5.77
	c-5.69-1.8-11.86-1.35-17.3701-3.75c-9.5-3.24-18.83-6.9301-28-11c-2.33-0.95-5.28-0.04-7.25-1.83
	c-4.22-3.9401-9.91-5.4801-14.83-8.28c-5.61-6.26-14.04-8.97-20.34-14.4501c-7.89-6.7999-16.64-12.6599-23.53-20.5399
	c-3.37-3.6-6.77-7.17-10.17-10.74c-17.52,1.6899-35.01,3.71-52.53,5.45c-3.54-7.23-5.75-15.01-8.61-22.52
	c-7.01,5.47-13.88,11.12-20.81,16.7001c2.18,5.1699,5,10.09,6.75,15.4299c-1.99,5.23-5.77,9.66-8.6,14.5
	c-9.23-2.02-18.49-3.9399-27.69-6.0599c-8.39,6.61-16.67,13.36-24.97,20.09c1.37,3.84,2.51,7.77,3.63,11.71
	c-6.29,0.85-12.61,1.48-18.92,2.16c-0.78-2.87-1.85-5.6801-2.18-8.64c0.76-3.13,2.97-5.67,3.87-8.75
	c0.58-3.9399,0.33-7.95,0.48-11.91c4.15-0.83,8.69-0.25,12.56-2.0599c10.11-7.66,20.03-15.59,30.12-23.27
	c-23.29-23.26-46.6-46.49-69.91-69.74c-2.94,0.23-5.88,0.54-8.82,0.8c-0.69-2.38-1.37-4.76-2.05-7.13c0.49-1.03,0.98-2.04,1.47-3.04
	c-5.25-4.69-9.4-10.75-15.57-14.3c-1.67-3.72-5.08-6.12-7.79-9.01c-7.38-7.2-14.39-14.79-22.08-21.64
	c-0.32,4.07,1.19,7.91,2.17,11.79c1.09,4.27,2.15,8.56,3.09,12.87c-8.23,0.9301-16.49,1.66-24.76,2.19
	c-1.09-4.93-2.27-9.85-3.15-14.8199c-19.33,55.25-38.17,110.67-57.2,166.02c2.49,5.38,5.31,10.6,7.91,15.9301
	c-5.2,6.48-10.16,13.1499-15.4,19.6c-8.5-2.01-17.07-3.74-25.51-6.02c2.48-6.86,5.4-13.5699,7.68-20.5
	c0.84-7.24-0.33-14.5699,0.26-21.8199c2.74-5.4401,8.4-8.99,10.56-14.8101c17.2-46.74,34.52-93.44,51.76-140.16
	c2.19-6.56,5.93-12.9,5.01-20.07c-38.66,22.65-77.29,45.33-115.94,67.99c2.21,4.33,4.48,8.65,6.65,13.01
	c-4.02,4.18-7.71,8.71-12.01,12.62c-9.6-1.33-19-4.06-28.52-5.92c2.17-6.06,5.14-11.81,7.26-17.88c0.8-6.82-0.59-13.75,0.08-20.58
	c2-2.95,4.83-5.22,7.31-7.74c5.78,1.26,11.58,2.43,17.35,3.74c39.27-22.14,78.51-44.35,117.79-66.49c0.08-8.61-0.07-17.23,0.2-25.83
	c-0.11-3.73,3.07-6.09,5.8-7.99c0.09-17.59,0.45-35.17,0.34-52.76c-6.79,0.28-13.55,1.04-20.34,1.31c-0.81-4.1-2.29-8.11-2.48-12.29
	c0.98-4.24,3.35-8.03,4.23-12.3c0.39-4.21,0.09-8.44,0.18-12.66c-38.59,31.24-77.42,62.2-115.94,93.53
	c3.53,5.77,4.4,12.46,4.68,19.1c-9.93,0.84-19.87,1.49-29.8,2.41c-0.28-3.79-0.98-7.57-0.8-11.3701c1.16-5.12,4.4-9.58,5.2-14.79
	c0.07-6.1-0.55-12.18-0.35-18.28c6.04-0.6201,12.14-0.65,18.16-1.5c2.48-1.1201,4.43-3.14,6.61-4.73
	c39.09-30.31,78.17-60.62,117.27-90.91c0.03-2.92-0.17-5.86,0.2-8.76c0.39-2.79,3.23-4.08,5.18-5.68
	c0.01-29.15,0.06-58.29,0.11-87.43c-1.22-1.45-3.24-2.69-3.01-4.83c-0.06-6.02-0.12-12.04,0.03-18.05
	c-0.15-2.88,2.98-3.93,4.91-5.31c0.18-30.38,0.14-60.76,0.3-91.14c-10.56-0.21-21.09-1.1-31.62-1.87
	c-5.41,0.23-10.86-0.11-16.09-1.58c-1.99-0.91-3.97,0.24-5.85,0.88c-11.32,4.55-22.74,8.85-34.06,13.39
	c-6.63-1.71-13.19-3.65-19.83-5.3c-0.46-7.98-0.24-15.98-0.47-23.96c-10.37-4.32-21.06-9.6-27.85-18.9c-2.69-3.2-2.66-7.59-3-11.52
	c-1.77,0.03-3.56,0.24-5.31-0.08c-1.97-7.25-0.37-14.77-0.57-22.13c-1-0.39-2.01-0.78-3.01-1.16c-0.68-5.91-1.15-11.87-0.76-17.82
	c1.72-0.69,3.45-1.38,5.18-2.07c0.83-5.1,1.62-10.23,1.43-15.41c-0.27-7.91,0.21-16.01-2.03-23.69c-1.63-0.96-3.45-1.53-5.21-2.19
	c-0.87-5.73-0.75-11.53-1.02-17.3c1.23-0.83,2.75-1.35,3.69-2.53c0.36-3.79-0.78-7.48-0.94-11.23c-0.18-3.77,0.04-7.55,0.34-11.3
	c1.89-0.01,3.77-0.01,5.66,0.03c-0.02-3.22-0.01-6.44,0-9.65c2.45-4.07,5.69-7.68,9.84-10.05c12.49-7.44,26.86-10.7,40.9-13.81
	c3.63-0.98,7.32-1.77,11.06-2.16c8.04-0.65,15.87-2.93,23.97-2.85c23.56-2.29,47.24-2.89,70.89-2.41
	c0.45-29.32,0.33-58.64,0.51-87.96c-4.98-0.77-10.27-0.42-14.99-2.33c-4.36-3.09-4.98-8.91-5.98-13.74
	c-4.9-1.05-5.23-6.7-4.87-10.77c0.32-3.93,1.63-9.31,6.54-9.28c1.94-4.81,3.81-11.87,9.89-12.52c11.75,0.82,23.45,2.45,35.18,3.61
	c27.78-20.11,55.63-40.13,83.32-60.37c-1.36-6.6-1.23-13.9,2.09-19.91c1.6-3.16,5.54-1.54,8.31-1.66
	c0.47-6.89,0.33-13.79,0.57-20.68c-38.81,0.84-77.64,0.96-116.45-0.02c-16.39-0.78-32.85-1.12-49.1-3.56
	c-3.47-0.45-6.85-1.52-9.73-3.56c1.13-1.41,2.06-3.28,4-3.69c8.01-2.52,16.44-3.29,24.73-4.39c37.91-4.24,76.06-5.78,114.16-7.44
	c6.14-1.3,12.12-3.35,18.35-4.35c0.13-6.22,0.27-12.44,0.38-18.66c3.39-0.6,6.82-0.89,10.27-0.96
	C324.13,40.17,324.16,37.74,324.28,35.31 M50.26,381.23c0.06,2.59,0.01,5.23,0.49,7.79c1.26,0.25,2.53,0.37,3.79,0.54
	C52.86,386.92,51.5,384.1,50.26,381.23 M620.45,394.06c-0.34,1.16-0.68,2.32-1.01,3.49c-6.88,0-14.3-2.94-20.84,0.11
	c-5.65,4.6-9.64,10.95-15.15,15.72c-2.5,0.85-5.33-0.1-7.93-0.12c-2.76,7.24-4.56,14.79-6.67,22.23c-1.59,7.48-0.42,15.26-2.4,22.69
	c0.63,0.92,1.27,1.83,1.91,2.76c9.88-0.82,19.78-0.83,29.67-0.35c9.3799-0.16,18.59,1.81,27.87,2.9c6.23,0.71,12.24,2.55,18.3,4.04
	c1.38-17.61,2.73-35.23,4.17-52.84c-7.19-4.22-12.55-11.26-14.47-19.4C629.43,394.76,624.94,394.41,620.45,394.06 M737.35,416.31
	c-2.71,28.27-5.2599,56.55-7.94,84.82c7.01,4.12,13.9901,8.28,21.05,12.33c4.65,2.48,8.12,6.78,10.77,11.23
	c-0.61,3.28-1.69,6.45-2.61,9.65c3.88,5.98,8.02,11.89,13.51,16.52c7.45,6.43,14.35,13.54,22.47,19.16c2.42-1.75,4.86-3.49,7.3-5.22
	c8.24,4.99,17.05,9.2,24.3,15.66c2.65-23.84,5.3-47.69,7.94-71.53c-0.26-4.57-1.84-9.52-5.38-12.64
	c-4.98-4.84-9.85-9.78-14.75-14.69c-1.3,0.62-2.59,1.23-3.88,1.82c-3.83-4.65-7.64-9.31-11.5-13.92c-2.09-2.55-4.63-4.97-5.31-8.33
	c-16.17-16.53-32.65-32.75-48.99-49.12C742.06,413.55,739.71,414.95,737.35,416.31 M278.03,535.93
	c-16.69,2.69-33.52,4.49-50.41,5.28c-0.16,19.34-0.43,38.67-0.42,58c2.23,1.36,5.67,2.53,5.55,5.72c0.19,7.4-0.07,14.82-0.1,22.23
	c2.86,0.78,5.69,1.64,8.5,2.61c9.25,2.89,17.48,9.3,22.34,17.71c1.17,2.19,2.55,6.15-0.48,7.45c-3.42,0.95-6.82-1.06-10.06-1.96
	c-7.74-2.29-14.29-7.22-20.33-12.41c-0.23,4.14,0.02,8.31-0.32,12.46c-0.13,2.18-2.16,3.42-3.51,4.88
	c-0.34,36.03-0.68,72.06-1.01,108.09c35.73,23.65,71.5,47.25,107.23,70.91c1.14,0.73,2.41,1.41,3.83,1.17
	c5.06-0.35,10.11-0.87,15.19-1.02c3.69,6.46,2.02,13.92,2.05,20.96c-0.36,5.52,2.56,10.47,3.98,15.65c2.3-0.16,4.6-0.3199,6.9-0.48
	c-2-7.91-4.03-15.82-6.09-23.71c-0.97-3.3799-0.48-6.91-0.87-10.34c-2.05-5.11-5.5-9.54-7.49-14.69
	c-5.85-14.54-11.72-29.06-17.41-43.66c-1.78-5.28-7.31-7.96-9.82-12.8c-0.36-8.62,0.51-17.26,0.39-25.88
	c-0.1-4.08-2.15-7.69-3.64-11.37c-2.1-5.12-4.39-10.26-5.3-15.75c0.36-3.39,3.89-4.44,6.75-4.76c0.18-8.75,0.75-17.48,1.48-26.1899
	c0.28-4.78,2.37-9.17,3.01-13.88c1.19-7.48,2.96-14.84,5.42-22c2.62-9.47,6.03-18.66,10.16-27.57c4.02-10.71,10.19-20.37,15.6-30.4
	c3.92-6.63,8.69-12.7,12.96-19.1c2.97-4.6,6.66-8.65,10.1-12.88c-15-4.25-29.49-10.27-43.18-17.72c-2.75,1.25-5.51,2.48-8.26,3.73
	c-12.5-3.17-25.02-6.25-37.5-9.47C288.18,533.18,283.14,535.84,278.03,535.93 M226.77,877.22c2.6,1.9301,5.96,4.08,5.75,7.79
	c0.12,8.89-0.17,17.78-0.21,26.67c11.7,7.04,23.51,13.9,35.19,20.97c1.47-1.71,2.92-3.44,4.39-5.15c4.52,0.82,9.04,1.66,13.49,2.84
	c-0.05,6.23-0.44,12.47-0.27,18.7c1.32,5.13,4.29,9.68,6.02,14.69c-1.53,1.98-3.01,4.01-4.11,6.27c3.67-1.85,6.74-4.63,9.99-7.11
	c18.48-14.33,36.96-28.66,55.44-43c-0.83-3.25-1.34-6.6-1.2-9.96c0.32-10.2,0.58-20.4,1.02-30.6c-6,0.45-11.98,1.25-17.99,1.33
	c-2.05-3.17-2.78-7.02-4.15-10.5099c1.6-3.38,3.22-6.75,4.83-10.11c-35.79-24.47-71.57-48.94-107.36-73.4
	C227.36,816.83,227.05,847.02,226.77,877.22 M194.23,807.13c0.42,3.28,1.66,6.39,2.4,9.62l0.66-0.04
	c-0.17-6.22,0.05-12.45-0.09-18.68C196.13,801.03,194.75,803.97,194.23,807.13 M965.47,889.96c-0.3799,1.7599-0.74,3.53-1.1299,5.29
	c-3.06,3.58-3.4901,8.47-4.9301,12.78c10.81-9.61,21.9-18.92,32.56-28.69C983.16,882.95,974.27,886.35,965.47,889.96 M297.21,978.41
	c20.6,19.9,41.26,39.75,61.96,59.54c6.12,2.79,13.2,2.9301,19.67,4.8201c-0.02,1.0499-0.05,3.1699-0.06,4.23
	c5.2-4.04,10.39-8.1,15.61-12.1c-3.46-8.59-1.59-17.9301-1.55-26.9c0.55-7.32,0.24-14.71,1.16-21.99c0.39-3.71,5.14-2.39,7.65-3.04
	c-4.47-11.85-9.13-23.62-13.64-35.45c-8.1,0.64-16.19,1.53-24.3,2.05c-2.76-6.15-4.74-12.6-7.14-18.88
	C336.67,946.45,317,962.51,297.21,978.41z"/>
</svg>
